<?xml version="1.0" encoding="UTF-8"?>
<svg width="291px" height="44px" viewBox="0 0 291 44" version="1.1" xmlns="http://www.w3.org/2000/svg" xmlns:xlink="http://www.w3.org/1999/xlink">
    <!-- Generator: Sketch 46.2 (44496) - http://www.bohemiancoding.com/sketch -->
    <title>Group</title>
    <desc>Created with Sketch.</desc>
    <defs></defs>
    <g id="MSAI-Authentication-Pages" stroke="none" stroke-width="1" fill="none" fill-rule="evenodd">
        <g id="Auth---Self-Identification---Desktop" transform="translate(-80.000000, -80.000000)" fill-rule="nonzero" fill="#333333">
            <g id="Group" transform="translate(80.000000, 80.000000)">
                <g id="MS_logotype">
                    <g id="Tutorial">
                        <g id="logo">
                            <path d="M281.88398,27.96 L281.88398,28.365 L281.88398,27.96 L275.455255,9.36 L271.69898,9.36 L280.057806,33.36 L280.057806,33.54 C279.614759,35.8251872 278.490553,37.9188194 276.83602,39.54 C275.846031,40.1784228 274.683129,40.4878808 273.510306,40.425 C272.891155,40.3869342 272.275732,40.3016919 271.669286,40.17 L271.669286,43.05 C272.487079,43.2520247 273.3225,43.3726008 274.163571,43.41 C275.756372,43.4447968 277.317997,42.9609614 278.617653,42.03 C280.495372,40.2643322 281.878225,38.0289571 282.626327,35.55 L291,9.36 L287.347653,9.36 L281.88398,27.96 Z" id="Shape"></path>
                            <path d="M269.145306,22.155 L269.145306,19.875 C269.145306,15.9 268.135714,12.99 266.175918,11.175 C264.205468,9.53288492 261.686679,8.71684486 259.138469,8.895 C257.659392,8.86715932 256.191474,9.15865553 254.832857,9.75 C253.570539,10.3033329 252.459908,11.1577612 251.596224,12.24 C249.720162,14.913454 248.789277,18.1470207 248.953469,21.42 C248.725146,25.0076174 249.965072,28.5325553 252.383112,31.17 C254.396081,33.053522 257.064583,34.0564385 259.806582,33.96 C265.166327,33.96 267.809082,30.96 268.907755,28.32 L265.938367,26.82 C264.972842,29.3519811 262.535999,30.9972947 259.851122,30.93 C257.826368,31.0238176 255.882804,30.1175405 254.639847,28.5 C253.357245,26.6453479 252.715414,24.4153186 252.813673,22.155 L269.145306,22.155 L269.145306,22.155 Z M265.492959,19.155 L252.917602,19.155 C253.244235,14.205 255.248571,11.895 259.227551,11.895 C263.503469,11.895 265.478112,14.205 265.478112,19.155 L265.492959,19.155 Z" id="Shape"></path>
                            <path d="M51.1477041,12.54 C49.3173499,10.1561436 46.4717775,8.79669083 43.4866837,8.88 C40.4974289,8.79673655 37.6473771,10.1556956 35.8108163,12.54 C33.9763723,15.1218913 33.0369403,18.2434312 33.1383673,21.42 C33.0369403,24.5965688 33.9763723,27.7181087 35.8108163,30.3 C37.6458373,32.6862463 40.4969239,34.0456988 43.4866837,33.96 C46.472794,34.0482081 49.3204527,32.6877586 51.1477041,30.3 C52.9864111,27.7194846 53.9310036,24.5981383 53.835,21.42 C53.9310036,18.2418617 52.9864111,15.1205154 51.1477041,12.54 M43.4866837,30.96 C39.4631633,30.96 37.0579592,27.39 37.0579592,21.42 C37.0579592,15.45 39.4631633,11.88 43.4866837,11.88 C47.5102041,11.88 49.9005612,15.45 49.9005612,21.42 C49.9005612,27.39 47.5102041,30.96 43.4866837,30.96" id="Shape"></path>
                            <path d="M62.1938265,19.905 C63.1143367,14.925 65.6828571,12.585 70.1517857,12.585 L70.1517857,9 C66.3658163,9 64.2130102,10.5 62.1938265,14.01 L62.1938265,14.01 L62.1938265,13.71 L62.1938265,9.42 L58.452398,9.42 L58.452398,33.57 L62.1938265,33.57 L62.1938265,19.905 Z" id="Shape"></path>
                            <path d="M153.799439,8.625 C153.730848,7.22071012 154.273218,5.85628405 155.284133,4.89 C156.527969,3.93070143 158.072481,3.45671292 159.634286,3.555 C161.454215,3.50542878 163.235944,4.08781322 164.682245,5.205 C165.944282,6.23803355 166.836136,7.66074198 167.221071,9.255 L170.739796,8.82 C169.71486,5.08367966 166.90715,2.11349995 163.259975,0.907354257 C159.612799,-0.298791431 155.610164,0.419160789 152.596837,2.82 C150.871346,4.32759344 149.875281,6.51527581 149.865,8.82 C149.813734,11.2957763 151.017608,13.6265185 153.057092,15 C155.168116,16.363608 157.456698,17.4237759 159.85699,18.15 C164.07352,19.65 168.022806,21.075 168.022806,24.915 C168.082621,26.4766033 167.477251,27.9892497 166.359949,29.07 C164.876017,30.2577557 163.00807,30.8458363 161.11898,30.72 C157.110306,30.72 154.215153,28.455 152.58199,24.105 L149.033571,25.08 C149.940665,27.3297647 151.289119,29.3707461 152.997704,31.08 C155.191537,33.0092797 158.035082,34.0134382 160.940816,33.885 C164.786173,33.885 167.71102,32.865 169.626276,30.885 C171.245853,29.0720209 172.107827,26.6959706 172.03148,24.255 C172.025287,21.7325941 170.764491,19.3822749 168.676071,18 C166.487679,16.6152041 164.119132,15.5449328 161.638622,14.82 C157.585408,13.41 153.754898,12.09 153.799439,8.655" id="Shape"></path>
                            <path d="M177.955408,12.33 L174.362449,12.33 L174.362449,9.33 L177.955408,9.33 L177.955408,1.5 L181.696837,1.5 L181.696837,9.345 L185.720357,9.345 L185.720357,12.345 L181.696837,12.345 L181.696837,28.845 C181.696837,29.955 181.949235,30.96 184.458367,30.96 L185.720357,30.96 L185.720357,33.615 C184.908853,33.8258709 184.077969,33.9515371 183.240918,33.99 C181.920594,34.08223 180.601723,33.7907528 179.440102,33.15 C178.465565,32.5111257 177.900238,31.397373 177.955408,30.225 L177.955408,12.33 Z" id="Shape"></path>
                            <path d="M242.495051,28.845 C242.495051,29.955 242.836531,30.96 245.345663,30.96 L246.607653,30.96 L246.607653,33.615 C245.796341,33.8268253 244.965358,33.9525064 244.128214,33.99 C242.803058,34.0834434 241.479095,33.7919794 240.312551,33.15 C239.318804,32.5208852 238.726471,31.4094963 238.753622,30.225 L238.753622,0 L242.509898,0 L242.509898,28.845 L242.495051,28.845 Z" id="Shape"></path>
                            <path d="M124.625204,15.645 C125.902041,14.265 128.737806,12 131.33602,12 C133.934235,12 135.107143,13.245 135.107143,16.14 L135.107143,33.585 L138.848571,33.585 L138.848571,16.05 C138.833724,10.83 135.107143,9 131.647806,9 C128.888385,9.15682387 126.329518,10.5068364 124.625204,12.705 L124.625204,9.42 L120.883776,9.42 L120.883776,33.57 L124.625204,33.57 L124.625204,15.57 L124.625204,15.645 Z" id="Shape"></path>
                            <path d="M110.906633,30.585 C110.885853,31.7173312 111.51721,32.7589848 112.524949,33.255 C113.573631,33.6729761 114.7238,33.7567257 115.820969,33.495 L115.820969,30.93 C115.425382,30.9683432 115.034678,30.81841 114.764041,30.5244023 C114.493403,30.2303946 114.373694,29.8258379 114.440204,29.43 L114.440204,16.245 C114.530173,14.0238092 113.502273,11.9073068 111.708367,10.62 C109.994266,9.49201808 107.977248,8.92625015 105.932908,9 C102.223107,8.84055721 98.7545784,10.8555222 97.0247449,14.175 L99.9941327,15.765 C100.946082,13.3314499 103.349255,11.8018431 105.932908,11.985 C109.110153,11.985 110.728469,13.485 110.728469,16.23 L110.728469,17.1 C110.753465,17.2136136 110.753465,17.3313864 110.728469,17.445 C110.364736,17.7034507 109.925304,17.830297 109.481327,17.805 C105.027245,18.3 102.057857,19.065 99.8753571,20.49 C97.5323467,21.8100088 96.0617517,24.2900779 96.0151531,27 C96.0882688,30.8973847 99.2538247,34.0085952 103.11199,33.975 C106.12727,34.2998631 109.08735,32.9871967 110.891786,30.525 L110.906633,30.585 Z M110.891786,26.49 C110.728469,28.605 106.823724,31.17 103.631633,30.99 C101.612535,30.8308733 100.033873,29.1649076 99.9644388,27.12 C99.6675,23.205 102.636888,21.54 109.154694,20.82 C109.754396,20.7682303 110.341419,20.6161599 110.891786,20.37 L110.891786,26.55 L110.891786,26.49 Z" id="Shape"></path>
                            <path d="M204.264184,30.585 C204.236954,31.714931 204.863099,32.7575494 205.867653,33.255 C206.911644,33.6708149 208.056439,33.7545505 209.148827,33.495 L209.148827,30.93 C208.753239,30.9683432 208.362535,30.81841 208.091898,30.5244023 C207.821261,30.2303946 207.701551,29.8258379 207.768061,29.43 L207.768061,16.245 C207.86079,14.0232229 206.832278,11.9054608 205.036224,10.62 C203.330104,9.49886078 201.324651,8.93342985 199.290459,9 C195.58245,8.84795038 192.117552,10.860806 190.382296,14.175 L193.351684,15.765 C194.303633,13.3314499 196.706806,11.8018431 199.290459,11.985 C202.467704,11.985 204.08602,13.485 204.08602,16.23 L204.08602,17.1 C204.112556,17.2134375 204.112556,17.3315625 204.08602,17.445 C203.722287,17.7034507 203.282855,17.830297 202.838878,17.805 C198.384796,18.3 195.415408,19.065 193.232908,20.49 C190.887698,21.807715 189.416263,24.2892006 189.372704,27 C189.44582,30.8973847 192.611376,34.0085952 196.469541,33.975 C199.488908,34.2991739 202.45306,32.9872057 204.264184,30.525 L204.264184,30.585 Z M204.264184,26.49 C204.100867,28.605 200.196122,31.17 197.004031,30.99 C194.988015,30.8243164 193.412889,29.1620824 193.336837,27.12 C193.054745,23.205 196.009286,21.54 202.527092,20.82 C203.12698,20.7693427 203.714183,20.6172258 204.264184,20.37 L204.264184,26.55 L204.264184,26.49 Z" id="Shape"></path>
                            <polygon id="Shape" points="14.1491327 27.12 6.22086735 0.795 0 0.795 0 33.57 3.74142857 33.57 3.74142857 3.585 3.8305102 3.705 12.7238265 33.57 15.6189796 33.57 24.5271429 3.705 24.6013776 3.585 24.6013776 33.57 28.3576531 33.57 28.3576531 0.795 22.1070918 0.795 14.1936735 27.12 14.1639796 27.255"></polygon>
                            <path d="M217.982755,15.645 C219.259592,14.265 222.095357,11.94 224.678724,11.94 C227.262092,11.94 228.435,13.23 228.435,16.14 L228.435,33.585 L232.176429,33.585 L232.176429,16.05 C232.176429,10.83 228.494388,8.955 225.005357,8.955 C222.245936,9.11182387 219.687069,10.4618364 217.982755,12.66 L217.982755,9.42 L214.241327,9.42 L214.241327,33.57 L217.982755,33.57 L217.982755,15.57 L217.982755,15.645 Z" id="Shape"></path>
                            <path d="M88.5916837,9.39 L87.789949,12 C86.4145719,10.0395635 84.153761,8.91160383 81.7769388,9 C77.5604082,9 71.5919388,11.865 71.5919388,21.495 C71.5919388,30.855 77.5307143,34.005 81.5987755,34.005 C83.9571598,33.9111456 86.1440908,32.7345993 87.537551,30.81 L87.7157143,30.72 L87.7157143,35.25 C87.6863176,36.7151069 87.065562,38.1044368 85.9974012,39.0958028 C84.9292405,40.0871688 83.5064696,40.5944473 82.0590306,40.5 C79.506163,40.5496879 76.9731386,40.0378603 74.6355612,39 L74.6355612,42.27 C76.883034,43.1076038 79.262775,43.5244124 81.6581633,43.5 C88.2947449,43.5 91.4571429,39.81 91.4571429,34.5 L91.4571429,9.39 L88.5916837,9.39 Z M87.7454082,26.55 C86.8726738,29.0214249 84.647686,30.7469867 82.0590306,30.96 C78.2136735,30.96 75.5115306,28.53 75.5115306,21.27 C75.5115306,15.15 77.9315816,11.94 82.0590306,11.94 C84.3305781,11.9794646 86.4454837,13.1175548 87.7454082,15 L87.7454082,26.55 Z" id="Shape"></path>
                        </g>
                    </g>
                </g>
            </g>
        </g>
    </g>
</svg>